<?xml version="1.0" standalone="no"?>
<!DOCTYPE svg PUBLIC "-//W3C//DTD SVG 20010904//EN"
 "http://www.w3.org/TR/2001/REC-SVG-20010904/DTD/svg10.dtd">
<svg version="1.0" xmlns="http://www.w3.org/2000/svg"
 width="16.000000pt" height="16.000000pt" viewBox="0 0 16.000000 16.000000"
 preserveAspectRatio="xMidYMid meet">
<metadata>
Created by potrace 1.11, written by Peter Selinger 2001-2013
</metadata>
<g transform="translate(0.000000,16.000000) scale(0.001914,-0.001914)"
fill="#000000" stroke="none">
<path d="M2047 8150 c-5 -21 -21 -24 -98 -20 -40 2 -48 -5 -55 -48 -3 -15 -16
-72 -30 -127 -13 -55 -26 -109 -28 -120 -2 -11 -9 -40 -16 -65 -7 -25 -14 -54
-16 -65 -6 -31 -15 -68 -39 -157 -3 -10 -7 -26 -9 -36 -2 -9 -9 -35 -14 -57
-6 -22 -13 -52 -16 -67 -2 -15 -7 -32 -11 -38 -3 -5 -8 -24 -10 -42 -2 -18 -9
-49 -15 -68 -6 -19 -13 -53 -16 -75 -4 -22 -10 -42 -15 -43 -5 -2 -7 -7 -4
-11 2 -5 0 -23 -5 -42 -6 -19 -12 -45 -15 -59 -3 -14 -12 -50 -20 -80 -9 -30
-18 -64 -20 -76 -3 -12 -23 -96 -45 -188 -22 -92 -42 -177 -44 -189 -3 -12 -5
-22 -6 -22 -2 0 -9 -32 -14 -60 -2 -11 -9 -40 -16 -65 -11 -39 -16 -64 -24
-105 -1 -5 -5 -16 -9 -22 -5 -7 -6 -13 -3 -13 3 0 1 -12 -5 -27 -6 -16 -13
-37 -15 -48 -2 -11 -6 -29 -8 -40 -2 -11 -9 -40 -16 -65 -7 -25 -14 -56 -16
-70 -3 -14 -7 -32 -10 -40 -3 -8 -8 -26 -10 -39 -3 -13 -12 -51 -20 -85 -8
-34 -17 -72 -20 -86 -2 -14 -7 -32 -11 -40 -3 -8 -5 -23 -4 -32 1 -10 -2 -18
-6 -18 -5 0 -9 -8 -9 -17 -2 -28 -14 -86 -24 -113 -9 -24 -44 -158 -54 -210
-3 -14 -14 -61 -26 -105 -11 -44 -22 -89 -24 -100 -9 -45 -56 -242 -66 -275
-6 -19 -13 -44 -15 -55 -15 -66 -23 -99 -25 -102 -3 -4 -5 -10 -15 -63 -11
-58 -10 -52 -18 -75 -3 -11 -9 -33 -12 -50 -6 -32 -12 -57 -15 -65 -1 -3 -3
-9 -5 -15 -1 -5 -3 -12 -5 -15 -1 -3 -4 -14 -5 -25 -5 -37 -16 -88 -20 -95 -2
-3 -6 -17 -8 -31 -3 -13 -11 -44 -18 -69 -7 -25 -13 -49 -15 -55 -1 -5 -32
-134 -69 -285 -79 -327 -73 -305 -75 -305 -1 0 -4 -19 -6 -42 -5 -46 -5 -47
66 -45 47 1 54 -5 36 -33 -25 -38 -22 -41 94 -107 19 -11 37 -23 40 -27 3 -3
16 -12 30 -19 30 -14 63 -35 70 -43 3 -3 59 -39 125 -79 66 -40 140 -87 165
-104 52 -36 75 -50 110 -68 14 -7 29 -18 33 -25 4 -7 15 -13 22 -13 8 0 15 -4
15 -10 0 -5 5 -10 11 -10 6 0 37 -17 68 -38 87 -60 222 -142 232 -142 5 0 9
-4 9 -9 0 -5 8 -12 19 -16 17 -5 35 -18 81 -57 8 -7 16 -12 17 -10 2 1 28 -13
58 -33 31 -19 60 -35 65 -35 6 0 10 -4 10 -10 0 -5 7 -10 15 -10 8 0 15 -4 15
-10 0 -5 5 -10 10 -10 6 0 43 -22 83 -48 40 -27 77 -51 82 -53 17 -7 87 -52
168 -106 43 -29 82 -53 87 -53 6 0 10 -4 10 -9 0 -5 10 -11 23 -15 12 -3 31
-13 42 -23 12 -10 36 -27 55 -37 19 -11 37 -22 40 -26 4 -5 46 -31 165 -103
90 -55 197 -127 206 -140 3 -5 9 -8 13 -8 17 2 24 -1 44 -19 12 -12 22 -17 22
-13 0 4 4 3 8 -3 4 -6 68 -48 142 -95 74 -46 137 -87 138 -92 2 -4 8 -5 13 -1
5 3 9 0 9 -5 0 -6 5 -11 10 -11 12 0 73 -41 78 -52 2 -5 9 -8 16 -8 7 0 24
-10 38 -22 14 -13 32 -24 39 -26 8 -2 21 -10 29 -17 8 -7 38 -25 65 -40 28
-15 59 -36 71 -46 11 -11 23 -19 27 -19 4 0 30 -16 57 -35 27 -19 54 -35 59
-35 5 0 16 -6 23 -13 7 -7 74 -50 148 -96 74 -47 143 -91 153 -99 9 -8 17 -11
17 -6 0 5 4 4 8 -1 8 -12 148 -105 157 -105 3 0 11 -5 18 -10 25 -22 229 -150
238 -150 5 0 9 -4 9 -8 0 -5 12 -15 28 -22 15 -8 65 -39 112 -70 48 -30 95
-60 105 -67 92 -56 204 -126 275 -172 47 -31 98 -62 113 -70 15 -8 27 -18 27
-23 0 -5 5 -6 10 -3 6 3 10 1 10 -4 0 -6 4 -11 10 -11 5 0 29 -13 52 -29 129
-87 137 -91 147 -74 7 13 11 9 21 -21 6 -20 12 -36 13 -36 3 0 200 70 217 77
8 3 20 7 25 8 6 2 53 19 105 39 52 20 106 39 120 42 13 3 29 9 35 13 5 5 37
16 70 26 33 10 65 22 71 27 6 4 14 5 17 1 4 -3 7 0 7 7 0 7 3 11 6 8 5 -6 150
42 174 57 5 3 54 21 107 40 141 49 335 119 433 155 47 17 123 45 170 61 47 16
92 32 100 36 8 3 17 7 20 8 27 6 118 40 139 51 14 8 30 14 35 14 17 0 47 44
40 59 -3 9 -9 25 -12 36 -2 11 -8 25 -12 30 -4 6 -6 19 -4 30 1 11 -1 22 -6
25 -4 3 -36 86 -70 185 -143 418 -172 501 -174 510 -2 6 -6 17 -9 25 -4 8 -13
35 -21 60 -8 25 -24 72 -36 105 -12 33 -24 67 -26 75 -2 8 -32 98 -68 200 -35
102 -104 303 -154 446 -49 144 -92 267 -96 273 -4 6 -10 23 -12 38 -3 15 -8
31 -12 37 -3 6 -7 16 -8 21 -1 6 -19 57 -39 115 -20 58 -37 110 -39 115 -5 22
-39 121 -45 130 -3 6 -6 15 -8 20 -2 9 -36 108 -50 145 -3 8 -7 20 -9 25 -5
23 -95 292 -103 310 -11 25 -45 118 -46 125 0 3 -4 11 -8 18 -5 6 -6 12 -4 12
8 0 -151 452 -167 479 -7 10 -5 12 5 6 11 -7 12 -6 3 6 -11 13 -72 185 -79
221 -2 9 -11 30 -19 47 -9 17 -14 31 -12 31 3 0 1 12 -5 28 -29 71 -50 128
-54 142 -2 8 -10 35 -19 60 -9 25 -19 52 -21 60 -2 8 -13 40 -23 72 -11 31
-18 59 -15 62 4 3 1 6 -5 6 -7 0 -11 3 -11 8 1 4 0 9 -1 12 -1 3 -3 12 -5 20
-2 8 -15 47 -30 85 -15 39 -28 75 -30 80 -1 6 -5 17 -8 25 -24 56 -74 220 -69
224 3 3 1 6 -5 6 -6 0 -13 14 -17 31 -4 22 -10 30 -21 26 -8 -4 -21 1 -29 9
-9 8 -18 13 -20 12 -3 -2 -16 6 -28 17 -13 10 -24 18 -26 17 -3 -4 -125 69
-132 78 -3 4 -41 28 -85 54 -114 67 -119 70 -126 79 -3 5 -10 9 -15 10 -5 0
-38 19 -74 42 -36 23 -105 65 -155 95 -49 29 -105 65 -122 78 -18 13 -33 21
-33 18 0 -4 -6 -2 -12 5 -7 6 -59 39 -114 73 -298 180 -379 230 -382 238 -2 4
-10 8 -18 8 -8 0 -14 5 -14 10 0 6 -5 10 -10 10 -6 0 -53 27 -106 60 -52 33
-99 60 -105 60 -5 0 -9 5 -9 10 0 6 -7 10 -15 10 -8 0 -15 4 -15 9 0 5 -9 13
-20 16 -11 3 -26 12 -33 18 -7 7 -30 21 -50 32 -38 20 -334 202 -457 280 -36
23 -85 54 -110 69 -25 15 -54 32 -65 39 -11 7 -63 39 -115 72 -52 33 -108 67
-125 75 -16 8 -32 17 -35 20 -3 3 -70 46 -150 94 -80 49 -211 131 -292 183
-82 51 -153 93 -158 93 -6 0 -13 7 -16 15 -4 8 -11 12 -16 9 -6 -4 -13 -2 -17
4 -8 13 -198 132 -211 132 -5 0 -10 5 -10 10 0 6 -5 10 -11 10 -5 0 -37 18
-69 40 -32 22 -61 40 -64 40 -3 0 -24 13 -48 28 -24 16 -68 43 -99 60 -54 31
-57 31 -62 12z m123 -129 c0 -5 62 -46 138 -91 75 -46 139 -87 140 -92 2 -4 8
-6 13 -2 5 3 9 1 9 -4 0 -5 14 -15 30 -22 17 -7 30 -16 30 -21 0 -5 6 -9 14
-9 8 0 21 -7 30 -15 8 -8 25 -20 38 -25 34 -16 118 -68 128 -81 3 -3 16 -12
30 -19 31 -16 183 -108 272 -166 37 -24 72 -44 78 -44 5 0 10 -4 10 -10 0 -5
4 -10 10 -10 9 0 110 -58 120 -69 7 -9 41 -29 70 -43 14 -7 27 -15 30 -18 6
-7 199 -123 214 -129 6 -2 16 -9 22 -16 7 -6 70 -46 140 -89 71 -42 156 -95
189 -116 33 -21 77 -48 99 -60 21 -11 65 -39 98 -60 33 -22 61 -40 64 -40 2 0
37 -21 77 -48 39 -26 89 -55 110 -65 20 -10 37 -22 37 -28 0 -6 5 -7 10 -4 6
3 10 2 10 -3 0 -4 19 -19 43 -32 23 -13 45 -28 49 -34 4 -6 8 -7 8 -3 0 5 15
-2 32 -15 36 -26 77 -50 126 -75 17 -9 32 -20 32 -25 0 -4 7 -8 15 -8 8 0 15
-4 15 -10 0 -5 5 -10 11 -10 6 0 23 -8 37 -19 15 -10 43 -28 63 -39 76 -42 84
-47 89 -52 12 -12 69 -49 105 -69 22 -12 60 -35 85 -51 25 -17 57 -35 73 -41
15 -6 27 -15 27 -21 0 -5 4 -7 9 -3 5 3 12 1 16 -5 8 -13 112 -80 125 -80 6 0
10 -3 10 -8 0 -4 15 -14 33 -22 31 -13 42 -21 72 -48 8 -7 16 -12 17 -10 2 1
29 -15 61 -35 31 -20 62 -37 67 -37 6 0 10 -4 10 -10 0 -5 7 -10 15 -10 8 0
15 -4 15 -10 0 -5 4 -10 10 -10 8 0 135 -74 149 -86 3 -3 3 -53 2 -112 -5
-163 -10 -330 -13 -400 -2 -34 1 -62 5 -62 5 0 5 -5 1 -12 -4 -7 -9 -58 -10
-113 -1 -55 -5 -188 -8 -295 -3 -107 -9 -289 -13 -405 -3 -115 -6 -254 -7
-307 -1 -54 -3 -98 -6 -98 -3 0 -5 -92 -5 -205 0 -113 -2 -205 -5 -205 -3 0
-6 -60 -7 -133 0 -72 -4 -235 -8 -362 -3 -126 -7 -273 -8 -325 -2 -52 -6 -101
-10 -107 -5 -7 -5 -13 0 -13 9 0 9 -57 1 -66 -4 -3 -3 -18 2 -32 4 -15 4 -36
1 -47 -4 -11 -7 -59 -6 -107 0 -76 -2 -88 -17 -88 -9 0 -20 5 -23 10 -8 12
-77 58 -86 56 -3 -1 -13 7 -22 16 -9 9 -41 30 -69 48 -88 51 -93 55 -101 68
-5 7 -12 10 -18 7 -5 -4 -9 -2 -9 3 0 5 -13 15 -30 22 -16 7 -30 16 -30 21 0
5 -4 9 -10 9 -5 0 -74 42 -152 93 -132 86 -210 135 -259 163 -10 6 -27 18 -37
27 -10 10 -24 17 -30 17 -7 0 -12 5 -12 10 0 6 -7 10 -15 10 -8 0 -15 5 -15
10 0 6 -7 10 -15 10 -8 0 -15 5 -15 10 0 6 -6 10 -13 10 -7 0 -23 9 -35 20
-12 11 -24 20 -27 20 -3 0 -58 35 -124 79 -65 43 -123 80 -128 82 -5 2 -56 35
-114 72 -57 38 -198 129 -314 202 -115 74 -214 138 -220 142 -5 5 -52 35 -104
67 -52 32 -129 81 -172 110 -110 73 -287 188 -323 210 -17 10 -33 21 -36 25
-3 4 -20 13 -37 20 -18 8 -33 18 -33 24 0 6 -3 7 -6 4 -4 -4 -15 3 -25 14 -9
11 -19 19 -22 17 -2 -2 -15 5 -28 15 -35 25 -186 121 -244 155 -28 17 -57 37
-64 46 -7 9 -19 16 -26 16 -6 0 -20 9 -30 20 -10 11 -22 20 -28 20 -5 0 -29
14 -54 30 -24 17 -47 30 -51 30 -6 0 -29 17 -79 60 -7 6 -13 9 -13 6 0 -3 -35
19 -77 47 l-77 52 -3 74 c-1 41 -4 80 -7 87 -3 8 -1 14 5 14 6 0 7 5 3 12 -4
6 -8 48 -9 92 -2 45 -6 142 -9 216 -11 238 -17 372 -21 495 -2 66 -7 172 -10
235 -3 63 -7 176 -10 250 -2 74 -7 194 -11 265 -3 72 -8 166 -10 210 -1 44 -5
131 -8 192 -5 104 -11 254 -22 493 -2 52 -6 155 -8 229 -3 73 -7 136 -10 139
-3 3 -1 11 5 19 6 7 7 13 3 13 -5 0 -10 28 -10 63 -4 171 -15 421 -19 425 -6
7 15 32 26 32 5 0 9 -4 9 -9z m-154 -173 c5 -101 15 -324 19 -443 3 -66 7
-183 11 -260 3 -77 6 -179 7 -227 1 -49 4 -88 7 -88 3 0 5 -54 5 -121 0 -66 2
-122 5 -124 3 -2 5 -62 5 -134 0 -72 3 -131 7 -131 4 0 3 -11 -2 -24 -5 -13
-6 -27 -2 -30 3 -4 7 -32 8 -64 1 -31 5 -136 9 -232 4 -96 8 -223 9 -282 0
-58 3 -105 6 -103 3 2 6 -29 7 -68 1 -40 5 -121 7 -182 3 -60 7 -160 10 -222
2 -62 7 -116 10 -122 4 -5 2 -12 -3 -15 -5 -3 -6 -21 -2 -38 3 -18 6 -70 6
-115 0 -46 2 -83 5 -83 3 0 6 -60 8 -133 1 -72 3 -143 5 -157 1 -14 -2 -25 -8
-25 -17 -1 -115 -66 -115 -76 0 -6 -5 -7 -10 -4 -6 3 -13 0 -16 -8 -3 -9 -19
-21 -35 -27 -16 -7 -29 -17 -29 -22 0 -5 -4 -7 -9 -4 -5 4 -11 3 -13 -2 -3 -7
-100 -76 -283 -200 -49 -33 -115 -79 -145 -101 -30 -22 -70 -48 -87 -57 -18
-9 -33 -20 -33 -25 0 -5 -5 -9 -11 -9 -7 0 -30 -15 -53 -33 -23 -18 -68 -51
-101 -72 -33 -22 -100 -68 -149 -103 -48 -34 -92 -62 -96 -60 -6 3 13 109 28
148 3 8 6 20 7 25 2 6 8 37 16 70 7 33 13 62 14 65 1 3 5 23 10 45 4 22 12 46
18 53 5 6 7 12 4 12 -4 0 15 90 24 110 1 3 3 10 4 15 1 6 4 17 7 25 5 14 45
187 54 239 3 14 7 28 10 33 5 8 8 21 19 78 3 14 9 40 14 58 5 17 7 32 4 32 -3
0 0 7 7 15 7 9 10 18 7 21 -3 3 1 23 8 45 8 21 12 39 9 39 -3 0 -2 6 3 13 4 6
8 14 9 17 10 55 18 80 26 80 5 0 6 4 3 10 -3 5 -1 29 6 52 6 24 12 50 14 58 2
8 8 35 15 60 14 52 22 90 23 108 0 6 3 12 6 12 3 0 7 11 7 25 1 14 5 33 9 43
4 9 9 28 11 42 4 28 12 65 14 65 1 0 4 9 6 20 3 11 6 25 8 30 1 6 8 37 15 70
7 33 16 71 22 85 5 14 11 34 13 45 3 11 12 52 21 90 9 39 19 78 21 89 3 17 86
358 101 416 3 14 7 32 9 40 1 8 10 42 19 75 9 33 19 69 21 80 2 11 11 49 20
85 9 36 18 74 20 85 1 11 3 20 4 20 2 0 10 36 12 58 1 9 6 17 11 17 4 0 6 4 3
8 -3 5 1 33 9 63 9 30 17 66 20 80 3 14 19 79 36 145 17 65 32 126 34 134 6
27 46 194 66 280 12 47 23 93 25 103 2 9 6 25 8 35 2 9 14 55 26 102 35 135
48 188 56 230 3 14 8 34 11 45 4 11 6 27 4 35 -2 8 0 12 5 8 4 -4 8 -31 10
-60z m3917 -2270 c-2 -5 0 -8 4 -8 5 0 15 -21 22 -47 8 -27 19 -59 24 -73 13
-31 12 -28 22 -65 4 -16 12 -36 18 -42 5 -7 7 -13 3 -13 -3 0 1 -17 10 -37 9
-21 17 -42 18 -48 4 -16 17 -48 27 -70 6 -12 11 -27 13 -35 2 -8 6 -22 9 -30
10 -26 68 -194 72 -210 2 -8 10 -34 19 -58 8 -23 15 -43 14 -45 -1 -1 10 -33
25 -72 32 -85 118 -334 122 -355 2 -8 4 -15 5 -15 1 0 3 -9 5 -20 2 -10 8 -28
14 -40 12 -25 93 -255 96 -275 0 -3 5 -14 11 -25 6 -11 10 -27 9 -35 0 -8 3
-18 7 -21 5 -3 10 -14 12 -25 3 -10 22 -71 44 -134 39 -112 135 -395 168 -495
10 -27 22 -61 27 -75 13 -32 76 -210 81 -230 3 -8 5 -16 5 -17 1 -2 1 -4 0 -5
0 -2 9 -27 20 -55 11 -29 18 -53 15 -53 -4 0 -1 -6 5 -13 6 -8 12 -22 14 -33
4 -21 10 -38 38 -106 10 -25 20 -55 22 -65 2 -10 7 -27 11 -38 5 -11 12 -33
18 -50 5 -16 14 -39 18 -50 5 -11 29 -81 54 -155 25 -74 59 -172 75 -216 16
-45 27 -85 24 -88 -4 -3 -1 -6 5 -6 7 0 12 -9 12 -20 0 -11 4 -28 9 -38 10
-17 73 -207 72 -217 0 -2 7 -22 16 -42 20 -48 102 -281 108 -308 7 -30 76
-227 88 -250 10 -19 9 -19 -17 -2 -14 10 -26 14 -26 10 0 -5 -4 -3 -8 3 -8 12
-168 117 -334 220 -27 16 -48 32 -48 37 0 4 -5 7 -11 7 -6 0 -30 14 -54 30
-24 17 -46 30 -50 30 -9 0 -129 84 -133 93 -2 4 -8 7 -14 7 -5 0 -29 14 -53
30 -24 17 -48 30 -54 30 -6 0 -11 4 -11 8 0 5 -12 15 -27 23 -42 21 -118 72
-121 81 -2 4 -10 8 -18 8 -8 0 -14 3 -14 8 0 4 -18 16 -40 26 -22 11 -40 23
-40 28 0 5 -4 7 -9 4 -5 -4 -11 -3 -13 1 -6 14 -313 213 -328 213 -6 0 -10 5
-10 10 0 6 -7 10 -15 10 -9 0 -18 7 -21 15 -4 8 -10 15 -16 15 -5 0 -25 12
-44 26 -19 15 -34 22 -34 18 0 -5 -4 -4 -8 2 -4 5 -24 20 -44 33 -33 19 -36
25 -28 46 6 15 6 27 -1 30 -5 4 -7 11 -3 17 3 5 8 87 10 181 10 406 12 455 18
465 3 6 2 13 -4 17 -6 4 -7 12 -1 24 6 10 6 23 1 31 -5 8 -6 18 -3 23 3 6 7
62 9 126 2 64 6 206 9 316 3 110 8 290 12 400 3 110 6 252 7 317 0 64 3 115 6
113 3 -2 5 81 5 183 0 103 2 191 4 195 2 5 4 54 4 110 1 56 6 105 12 109 6 5
6 8 -2 8 -11 0 -10 34 2 68 2 6 1 12 -3 12 -4 0 -8 9 -8 20 0 11 3 20 6 20 3
0 6 37 6 83 1 77 11 435 14 502 1 26 3 27 9 10 5 -11 7 -23 4 -27z m-3683
-1280 c0 -6 3 -9 6 -5 4 3 12 1 19 -6 7 -7 49 -34 94 -62 44 -27 81 -53 81
-57 0 -5 5 -8 12 -8 6 0 26 -11 45 -26 18 -14 33 -21 33 -17 0 4 4 3 8 -2 4
-6 25 -22 47 -36 22 -14 78 -50 125 -81 47 -31 119 -76 160 -101 41 -26 82
-52 90 -60 8 -7 47 -33 85 -57 174 -109 290 -185 293 -192 2 -5 8 -6 13 -2 5
3 9 1 9 -4 0 -5 14 -15 30 -22 17 -7 30 -16 30 -21 0 -5 4 -9 10 -9 5 0 64
-36 131 -80 67 -44 123 -80 126 -80 5 0 87 -54 93 -61 3 -4 19 -15 37 -25 37
-23 175 -111 373 -238 80 -52 177 -114 215 -137 39 -24 76 -49 83 -56 8 -7 23
-18 35 -24 35 -18 132 -83 135 -91 2 -5 8 -8 13 -8 5 0 53 -29 106 -64 157
-101 266 -170 296 -185 15 -8 27 -18 27 -23 0 -4 6 -8 14 -8 8 0 16 -4 18 -8
3 -7 87 -61 226 -146 26 -15 49 -31 52 -35 3 -3 48 -33 100 -66 52 -32 124
-79 160 -103 l65 -44 0 -114 c0 -63 -2 -114 -5 -114 -3 0 -6 -53 -6 -118 -1
-64 -5 -196 -8 -292 -4 -96 -9 -240 -11 -320 -2 -80 -7 -246 -10 -370 -4 -124
-8 -259 -9 -300 -2 -83 -6 -86 -60 -47 -45 32 -188 117 -197 117 -4 0 -9 4
-11 9 -1 5 -59 44 -128 86 -133 82 -232 146 -240 156 -3 3 -20 12 -37 20 -18
8 -33 17 -33 21 0 5 -7 8 -15 8 -8 0 -15 5 -15 10 0 6 -4 10 -10 10 -5 0 -49
26 -97 58 -48 31 -95 62 -105 67 -79 47 -173 109 -184 120 -8 7 -23 17 -34 20
-11 3 -20 11 -20 17 0 6 -3 9 -6 6 -5 -6 -163 90 -216 131 -14 12 -31 21 -37
21 -6 0 -11 5 -11 10 0 6 -4 10 -10 10 -13 0 -113 61 -122 74 -5 7 -8 7 -8 1
0 -6 -3 -6 -8 1 -4 5 -24 20 -45 33 -21 13 -44 30 -52 38 -8 8 -15 12 -15 9 0
-3 -37 18 -83 47 -46 28 -90 57 -99 62 -9 6 -42 27 -74 48 -33 21 -144 93
-249 159 -104 65 -219 139 -255 162 -36 24 -110 71 -165 104 -55 34 -105 66
-112 72 -7 5 -15 10 -18 10 -3 0 -15 9 -27 20 -12 11 -28 20 -35 20 -7 0 -13
5 -13 10 0 6 -6 10 -13 10 -7 0 -22 8 -33 18 -11 9 -26 18 -33 20 -7 1 -19 9
-27 17 -8 7 -23 17 -34 20 -11 3 -20 11 -20 16 0 5 -7 9 -15 9 -8 0 -15 3 -15
8 0 7 -16 17 -77 47 -18 8 -33 20 -33 25 0 6 -5 10 -10 10 -6 0 -23 8 -38 19
-15 10 -58 38 -97 62 -38 24 -76 49 -83 56 -7 7 -17 13 -22 13 -5 0 -36 18
-69 40 -33 22 -65 40 -71 40 -5 0 -10 4 -10 9 0 5 -13 14 -30 21 -16 7 -30 16
-30 21 0 5 -7 9 -15 9 -8 0 -15 5 -15 10 0 6 -5 10 -10 10 -10 0 -47 23 -222
137 -54 34 -100 63 -103 63 -3 0 -11 5 -18 10 -25 22 -229 150 -238 150 -5 0
-9 4 -9 9 0 5 -8 12 -18 15 -10 4 -49 27 -88 52 -38 26 -82 54 -99 64 -45 26
-208 128 -220 137 -33 26 -126 83 -135 83 -35 0 21 43 275 213 66 45 122 84
125 87 3 3 55 39 115 79 96 64 128 88 181 131 7 5 15 6 18 3 3 -4 6 -1 6 5 0
7 6 12 14 12 8 0 16 4 18 8 3 8 143 106 293 206 33 22 78 54 101 70 23 17 50
37 60 44 10 7 42 28 69 46 53 36 75 43 75 24z m3635 -2336 c56 -35 92 -61 111
-80 7 -7 17 -13 21 -12 4 0 16 -7 26 -15 9 -8 17 -12 17 -10 0 3 27 -12 59
-35 33 -22 64 -40 70 -40 5 0 15 -8 20 -17 6 -10 11 -13 11 -8 0 6 3 6 8 -1 4
-6 63 -46 132 -89 69 -43 130 -83 135 -89 6 -6 23 -17 38 -24 15 -6 33 -17 40
-22 7 -6 35 -25 62 -42 28 -18 96 -63 153 -100 57 -37 108 -68 113 -68 5 0 9
-4 9 -10 0 -5 5 -10 10 -10 6 0 58 -31 116 -70 58 -38 107 -70 110 -70 3 0 17
-8 32 -19 66 -46 240 -158 265 -170 25 -14 33 -36 11 -36 -9 0 -83 -26 -144
-51 -68 -27 -95 -37 -107 -40 -13 -2 -94 -30 -128 -44 -27 -11 -59 -23 -65
-25 -20 -5 -117 -39 -125 -44 -5 -3 -17 -6 -25 -8 -8 -1 -23 -6 -35 -12 -19
-10 -140 -54 -335 -123 -47 -16 -98 -35 -115 -41 -16 -7 -32 -12 -35 -12 -3 0
-15 -6 -26 -13 -12 -6 -24 -8 -28 -5 -3 3 -6 0 -6 -7 0 -7 -2 -11 -6 -8 -3 3
-27 -3 -55 -13 -27 -10 -49 -16 -49 -11 0 4 -4 2 -8 -5 -4 -6 -19 -14 -32 -17
-34 -7 -98 -31 -106 -39 -4 -4 -13 -7 -20 -7 -7 0 -25 -5 -41 -12 -15 -6 -37
-13 -48 -15 -10 -2 -30 -10 -42 -18 -13 -9 -23 -13 -23 -10 0 3 -13 -1 -30
-10 -54 -28 -57 -25 -54 88 10 392 13 457 18 466 4 5 2 13 -4 16 -6 4 -7 12
-3 18 4 7 8 74 8 149 0 76 2 138 5 138 3 0 5 73 5 163 0 89 2 166 4 171 4 8 6
84 10 378 1 87 2 87 76 40z"/>
</g>
</svg>
